<svg xmlns="http://www.w3.org/2000/svg" viewBox="0 0 214.55 214.55"><defs><style>.cls-1{fill:#5b5c5c;}</style></defs><title>condo-icn</title><g id="Layer_2" data-name="Layer 2"><g id="condo"><path class="cls-1" d="M161.85,84.57h30.83a7.87,7.87,0,0,0,7.86-7.86V68.88A7.87,7.87,0,0,0,192.68,61H161.85A7.87,7.87,0,0,0,154,68.88v7.83A7.87,7.87,0,0,0,161.85,84.57Zm.69-15H192V76H162.54Z"/><path class="cls-1" d="M161.85,113.07h30.83a7.87,7.87,0,0,0,7.86-7.86V97.38a7.87,7.87,0,0,0-7.86-7.86H161.85A7.87,7.87,0,0,0,154,97.38v7.83A7.87,7.87,0,0,0,161.85,113.07Zm.69-15H192v6.45H162.54Z"/><path class="cls-1" d="M161.85,141.57h30.83a7.87,7.87,0,0,0,7.86-7.86v-7.83a7.87,7.87,0,0,0-7.86-7.86H161.85a7.87,7.87,0,0,0-7.86,7.86v7.83A7.87,7.87,0,0,0,161.85,141.57Zm.69-15H192V133H162.54Z"/><path class="cls-1" d="M161.85,170.07h30.83a7.87,7.87,0,0,0,7.86-7.86v-7.83a7.87,7.87,0,0,0-7.86-7.86H161.85a7.87,7.87,0,0,0-7.86,7.86v7.83A7.87,7.87,0,0,0,161.85,170.07Zm.69-15H192v6.45H162.54Z"/><path class="cls-1" d="M161.85,198.57h30.83a7.87,7.87,0,0,0,7.86-7.86v-7.83a7.87,7.87,0,0,0-7.86-7.86H161.85a7.87,7.87,0,0,0-7.86,7.86v7.83A7.87,7.87,0,0,0,161.85,198.57Zm.69-15H192V190H162.54Z"/><path class="cls-1" d="M31.62,55.57H60.93A8.63,8.63,0,0,0,69.55,47V33.64A8.63,8.63,0,0,0,60.93,25H31.62A8.63,8.63,0,0,0,23,33.64V47A8.63,8.63,0,0,0,31.62,55.57Zm0-22L61,33.64V47a.07.07,0,0,1-.07.07L31.55,47Z"/><path class="cls-1" d="M86.62,55.57h29.32A8.63,8.63,0,0,0,124.55,47V33.64A8.63,8.63,0,0,0,115.93,25H86.62A8.63,8.63,0,0,0,78,33.64V47A8.63,8.63,0,0,0,86.62,55.57Zm0-22,29.38.07V47a.07.07,0,0,1-.07.07L86.55,47Z"/><path class="cls-1" d="M31.62,101.57H60.93A8.63,8.63,0,0,0,69.55,93V79.64A8.63,8.63,0,0,0,60.93,71H31.62A8.63,8.63,0,0,0,23,79.64V93A8.63,8.63,0,0,0,31.62,101.57Zm0-22L61,79.64V93a.07.07,0,0,1-.07.07L31.55,93Z"/><path class="cls-1" d="M86.62,101.57h29.32A8.63,8.63,0,0,0,124.55,93V79.64A8.63,8.63,0,0,0,115.93,71H86.62A8.63,8.63,0,0,0,78,79.64V93A8.63,8.63,0,0,0,86.62,101.57Zm0-22,29.38.07V93a.07.07,0,0,1-.07.07L86.55,93Z"/><path class="cls-1" d="M31.62,147.57H60.93A8.63,8.63,0,0,0,69.55,139V125.64A8.63,8.63,0,0,0,60.93,117H31.62A8.63,8.63,0,0,0,23,125.64V139A8.63,8.63,0,0,0,31.62,147.57Zm0-22,29.38.07V139a.07.07,0,0,1-.07.07L31.55,139Z"/><path class="cls-1" d="M86.62,147.57h29.32a8.63,8.63,0,0,0,8.62-8.62V125.64a8.63,8.63,0,0,0-8.62-8.62H86.62A8.63,8.63,0,0,0,78,125.64V139A8.63,8.63,0,0,0,86.62,147.57Zm0-22,29.38.07V139a.07.07,0,0,1-.07.07L86.55,139Z"/><path class="cls-1" d="M31.62,193.57H60.93A8.63,8.63,0,0,0,69.55,185V171.64A8.63,8.63,0,0,0,60.93,163H31.62A8.63,8.63,0,0,0,23,171.64V185A8.63,8.63,0,0,0,31.62,193.57Zm0-22,29.38.07V185a.07.07,0,0,1-.07.07L31.55,185Z"/><path class="cls-1" d="M86.62,193.57h29.32a8.63,8.63,0,0,0,8.62-8.62V171.64a8.63,8.63,0,0,0-8.62-8.62H86.62A8.63,8.63,0,0,0,78,171.64V185A8.63,8.63,0,0,0,86.62,193.57Zm0-22,29.38.07V185a.07.07,0,0,1-.07.07L86.55,185Z"/><path class="cls-1" d="M210.27,46H147.55V4.27A4.27,4.27,0,0,0,143.27,0H4.27A4.27,4.27,0,0,0,0,4.27v206a4.27,4.27,0,0,0,4.27,4.27h139a2.45,2.45,0,0,1,1,0h66a4.27,4.27,0,0,0,4.27-4.27V50.3A4.27,4.27,0,0,0,210.27,46ZM139,206H8.55V8.55H139Zm67,0H148.53V54.57H206Z"/></g></g></svg>