<svg xmlns="http://www.w3.org/2000/svg" xmlns:xlink="http://www.w3.org/1999/xlink" viewBox="0 0 251.19 214.55"><defs><style>.cls-1{fill:none;}.cls-2{fill:#236bb4;}.cls-3{clip-path:url(#clip-path);}.cls-4{fill:#fff;}</style><clipPath id="clip-path"><rect class="cls-1" x="19.38" y="61.4" width="40.75" height="29.06"/></clipPath></defs><title>condo-selected</title><g id="Layer_2" data-name="Layer 2"><g id="home1"><path class="cls-2" d="M198.49,84.57h30.83a7.87,7.87,0,0,0,7.86-7.86V68.88A7.87,7.87,0,0,0,229.32,61H198.49a7.87,7.87,0,0,0-7.86,7.86v7.83A7.87,7.87,0,0,0,198.49,84.57Zm.69-15h29.45V76H199.18Z"/><path class="cls-2" d="M198.49,113.07h30.83a7.87,7.87,0,0,0,7.86-7.86V97.38a7.87,7.87,0,0,0-7.86-7.86H198.49a7.87,7.87,0,0,0-7.86,7.86v7.83A7.87,7.87,0,0,0,198.49,113.07Zm.69-15h29.45v6.45H199.18Z"/><path class="cls-2" d="M198.49,141.57h30.83a7.87,7.87,0,0,0,7.86-7.86v-7.83a7.87,7.87,0,0,0-7.86-7.86H198.49a7.87,7.87,0,0,0-7.86,7.86v7.83A7.87,7.87,0,0,0,198.49,141.57Zm.69-15h29.45V133H199.18Z"/><path class="cls-2" d="M198.49,170.07h30.83a7.87,7.87,0,0,0,7.86-7.86v-7.83a7.87,7.87,0,0,0-7.86-7.86H198.49a7.87,7.87,0,0,0-7.86,7.86v7.83A7.87,7.87,0,0,0,198.49,170.07Zm.69-15h29.45v6.45H199.18Z"/><path class="cls-2" d="M198.49,198.57h30.83a7.87,7.87,0,0,0,7.86-7.86v-7.83a7.87,7.87,0,0,0-7.86-7.86H198.49a7.87,7.87,0,0,0-7.86,7.86v7.83A7.87,7.87,0,0,0,198.49,198.57Zm.69-15h29.45V190H199.18Z"/><path class="cls-2" d="M68.26,55.57H97.58A8.63,8.63,0,0,0,106.19,47V33.64A8.63,8.63,0,0,0,97.58,25H68.26a8.63,8.63,0,0,0-8.62,8.62V47A8.63,8.63,0,0,0,68.26,55.57Zm0-22,29.38.07V47a.07.07,0,0,1-.07.07L68.19,47Z"/><path class="cls-2" d="M123.26,55.57h29.32A8.63,8.63,0,0,0,161.19,47V33.64A8.63,8.63,0,0,0,152.58,25H123.26a8.63,8.63,0,0,0-8.62,8.62V47A8.63,8.63,0,0,0,123.26,55.57Zm0-22,29.38.07V47a.07.07,0,0,1-.07.07L123.19,47Z"/><path class="cls-2" d="M68.26,101.57H97.58A8.63,8.63,0,0,0,106.19,93V79.64A8.63,8.63,0,0,0,97.58,71H68.26a8.63,8.63,0,0,0-8.62,8.62V93A8.63,8.63,0,0,0,68.26,101.57Zm0-22,29.38.07V93a.07.07,0,0,1-.07.07L68.19,93Z"/><path class="cls-2" d="M123.26,101.57h29.32A8.63,8.63,0,0,0,161.19,93V79.64A8.63,8.63,0,0,0,152.58,71H123.26a8.63,8.63,0,0,0-8.62,8.62V93A8.63,8.63,0,0,0,123.26,101.57Zm0-22,29.38.07V93a.07.07,0,0,1-.07.07L123.19,93Z"/><path class="cls-2" d="M68.26,147.57H97.58a8.63,8.63,0,0,0,8.62-8.62V125.64A8.63,8.63,0,0,0,97.58,117H68.26a8.63,8.63,0,0,0-8.62,8.62V139A8.63,8.63,0,0,0,68.26,147.57Zm0-22,29.38.07V139a.07.07,0,0,1-.07.07L68.19,139Z"/><path class="cls-2" d="M123.26,147.57h29.32a8.63,8.63,0,0,0,8.62-8.62V125.64a8.63,8.63,0,0,0-8.62-8.62H123.26a8.63,8.63,0,0,0-8.62,8.62V139A8.63,8.63,0,0,0,123.26,147.57Zm0-22,29.38.07V139a.07.07,0,0,1-.07.07L123.19,139Z"/><path class="cls-2" d="M68.26,193.57H97.58a8.63,8.63,0,0,0,8.62-8.62V171.64A8.63,8.63,0,0,0,97.58,163H68.26a8.63,8.63,0,0,0-8.62,8.62V185A8.63,8.63,0,0,0,68.26,193.57Zm0-22,29.38.07V185a.07.07,0,0,1-.07.07L68.19,185Z"/><path class="cls-2" d="M123.26,193.57h29.32a8.63,8.63,0,0,0,8.62-8.62V171.64a8.63,8.63,0,0,0-8.62-8.62H123.26a8.63,8.63,0,0,0-8.62,8.62V185A8.63,8.63,0,0,0,123.26,193.57Zm0-22,29.38.07V185a.07.07,0,0,1-.07.07L123.19,185Z"/><path class="cls-2" d="M246.92,46H184.19V4.27A4.27,4.27,0,0,0,179.92,0h-139a4.27,4.27,0,0,0-4.27,4.27v206a4.27,4.27,0,0,0,4.27,4.27h139a2.45,2.45,0,0,1,1,0h66a4.27,4.27,0,0,0,4.27-4.27V50.3A4.27,4.27,0,0,0,246.92,46ZM175.65,206H45.19V8.55H175.65Zm67,0H185.17V54.57h57.47Z"/><circle class="cls-2" cx="39.76" cy="75.93" r="39.76"/><g id="completed-step-20"><g class="cls-3"><polygon class="cls-4" points="55.61 61.4 35.22 81.5 23.93 70.35 19.38 74.81 35.24 90.46 60.13 65.86 55.61 61.4"/></g></g></g></g></svg>