<svg xmlns="http://www.w3.org/2000/svg" xmlns:xlink="http://www.w3.org/1999/xlink" viewBox="0 0 249.9 185"><defs><style>.cls-1{fill:none;}.cls-2{fill:#236bb4;}.cls-3{clip-path:url(#clip-path);}.cls-4{fill:#fff;}</style><clipPath id="clip-path"><rect class="cls-1" x="19.38" y="31.85" width="40.75" height="29.06"/></clipPath></defs><title>Dethome-Selected</title><g id="Layer_2" data-name="Layer 2"><g id="home1"><path class="cls-2" d="M245.9,30H136L105.66,1.1a4,4,0,0,0-5.51,0l-61,58A4,4,0,0,0,37.9,62V181a4,4,0,0,0,4,4h204a4,4,0,0,0,4-4V34A4,4,0,0,0,245.9,30Zm-4,8V58H165.5l-21-20ZM45.9,63.72l57-54.2,57,54.2V177h-14V135.61a9.62,9.62,0,0,0-9.61-9.61H69.51a9.62,9.62,0,0,0-9.61,9.61V177h-14Zm92,82.78h-70V135.61A1.61,1.61,0,0,1,69.51,134h66.78a1.61,1.61,0,0,1,1.61,1.61Zm-70,3h70v12h-70Zm0,27.5V164.5h70V177Zm100,0V66h74V177Z"/><path class="cls-2" d="M69.51,117h66.78a9.62,9.62,0,0,0,9.61-9.61V87.61A9.62,9.62,0,0,0,136.29,78H69.51a9.62,9.62,0,0,0-9.61,9.61v19.78A9.62,9.62,0,0,0,69.51,117Zm22.89-8V86h21v23Zm45.5-21.39v19.78a1.61,1.61,0,0,1-1.61,1.61H116.4V86h19.89A1.61,1.61,0,0,1,137.9,87.61Zm-70,0A1.61,1.61,0,0,1,69.51,86H89.4v23H69.51a1.61,1.61,0,0,1-1.61-1.61Z"/><path class="cls-2" d="M222.29,78H188.51a9.62,9.62,0,0,0-9.61,9.61v19.78a9.62,9.62,0,0,0,9.61,9.61h33.78a9.62,9.62,0,0,0,9.61-9.61V87.61A9.62,9.62,0,0,0,222.29,78ZM186.9,107.39V87.61A1.61,1.61,0,0,1,188.51,86H203.9v23H188.51A1.61,1.61,0,0,1,186.9,107.39Zm37,0a1.61,1.61,0,0,1-1.61,1.61H206.9V86h15.39a1.61,1.61,0,0,1,1.61,1.61Z"/><path class="cls-2" d="M222.29,126H188.51a9.62,9.62,0,0,0-9.61,9.61v19.78a9.62,9.62,0,0,0,9.61,9.61h33.78a9.62,9.62,0,0,0,9.61-9.61V135.61A9.62,9.62,0,0,0,222.29,126ZM186.9,155.39V135.61a1.61,1.61,0,0,1,1.61-1.61H203.9v23H188.51A1.61,1.61,0,0,1,186.9,155.39Zm37,0a1.61,1.61,0,0,1-1.61,1.61H206.9V134h15.39a1.61,1.61,0,0,1,1.61,1.61Z"/><path class="cls-2" d="M103.9,61.5A9.5,9.5,0,1,0,94.4,52,9.51,9.51,0,0,0,103.9,61.5Zm0-16A6.5,6.5,0,1,1,97.4,52,6.51,6.51,0,0,1,103.9,45.5Z"/><circle class="cls-2" cx="39.76" cy="46.38" r="39.76"/><g id="completed-step-20"><g class="cls-3"><polygon class="cls-4" points="55.61 31.85 35.22 51.95 23.93 40.8 19.38 45.26 35.24 60.91 60.13 36.31 55.61 31.85"/></g></g></g></g></svg>