<svg xmlns="http://www.w3.org/2000/svg" viewBox="0 0 212 185"><defs><style>.cls-1{fill:#5b5c5c;}</style></defs><title>dethome-icn</title><g id="Layer_2" data-name="Layer 2"><g id="home1"><path class="cls-1" d="M208,30H98.15L67.76,1.1a4,4,0,0,0-5.51,0l-61,58A4,4,0,0,0,0,62V181a4,4,0,0,0,4,4H208a4,4,0,0,0,4-4V34A4,4,0,0,0,208,30Zm-4,8V58H127.6l-21-20ZM8,63.72,65,9.52l57,54.2V177H108V135.61A9.62,9.62,0,0,0,98.39,126H31.61A9.62,9.62,0,0,0,22,135.61V177H8Zm92,82.78H30V135.61A1.61,1.61,0,0,1,31.61,134H98.39a1.61,1.61,0,0,1,1.61,1.61Zm-70,3h70v12H30ZM30,177V164.5h70V177Zm100,0V66h74V177Z"/><path class="cls-1" d="M31.61,117H98.39a9.62,9.62,0,0,0,9.61-9.61V87.61A9.62,9.62,0,0,0,98.39,78H31.61A9.62,9.62,0,0,0,22,87.61v19.78A9.62,9.62,0,0,0,31.61,117Zm22.89-8V86h21v23ZM100,87.61v19.78A1.61,1.61,0,0,1,98.39,109H78.5V86H98.39A1.61,1.61,0,0,1,100,87.61Zm-70,0A1.61,1.61,0,0,1,31.61,86H51.5v23H31.61A1.61,1.61,0,0,1,30,107.39Z"/><path class="cls-1" d="M184.39,78H150.61A9.62,9.62,0,0,0,141,87.61v19.78a9.62,9.62,0,0,0,9.61,9.61h33.78a9.62,9.62,0,0,0,9.61-9.61V87.61A9.62,9.62,0,0,0,184.39,78ZM149,107.39V87.61A1.61,1.61,0,0,1,150.61,86H166v23H150.61A1.61,1.61,0,0,1,149,107.39Zm37,0a1.61,1.61,0,0,1-1.61,1.61H169V86h15.39A1.61,1.61,0,0,1,186,87.61Z"/><path class="cls-1" d="M184.39,126H150.61a9.62,9.62,0,0,0-9.61,9.61v19.78a9.62,9.62,0,0,0,9.61,9.61h33.78a9.62,9.62,0,0,0,9.61-9.61V135.61A9.62,9.62,0,0,0,184.39,126ZM149,155.39V135.61a1.61,1.61,0,0,1,1.61-1.61H166v23H150.61A1.61,1.61,0,0,1,149,155.39Zm37,0a1.61,1.61,0,0,1-1.61,1.61H169V134h15.39a1.61,1.61,0,0,1,1.61,1.61Z"/><path class="cls-1" d="M66,61.5A9.5,9.5,0,1,0,56.5,52,9.51,9.51,0,0,0,66,61.5Zm0-16A6.5,6.5,0,1,1,59.5,52,6.51,6.51,0,0,1,66,45.5Z"/></g></g></svg>