<svg xmlns="http://www.w3.org/2000/svg" viewBox="0 0 232 143"><defs><style>.cls-1{fill:#5b5c5c;}</style></defs><title>row-icn</title><g id="Layer_2" data-name="Layer 2"><g id="home1"><path class="cls-1" d="M38.21,56.61h-13a9.62,9.62,0,0,0-9.61,9.61V78.39A9.62,9.62,0,0,0,25.23,88h13a9.62,9.62,0,0,0,9.61-9.61V66.22A9.62,9.62,0,0,0,38.21,56.61ZM23.62,78.39V66.22a1.61,1.61,0,0,1,1.61-1.61h5V80h-5A1.61,1.61,0,0,1,23.62,78.39Zm16.2,0A1.61,1.61,0,0,1,38.21,80h-5V64.61h5a1.61,1.61,0,0,1,1.61,1.61Z"/><path class="cls-1" d="M94.33,56.61h-13a9.62,9.62,0,0,0-9.61,9.61V78.39A9.62,9.62,0,0,0,81.35,88h13a9.62,9.62,0,0,0,9.61-9.61V66.22A9.62,9.62,0,0,0,94.33,56.61ZM79.74,78.39V66.22a1.61,1.61,0,0,1,1.61-1.61h5V80h-5A1.61,1.61,0,0,1,79.74,78.39Zm16.21,0A1.61,1.61,0,0,1,94.33,80h-5V64.61h5a1.61,1.61,0,0,1,1.61,1.61Z"/><path class="cls-1" d="M150.65,56.61h-13a9.62,9.62,0,0,0-9.61,9.61V78.39A9.62,9.62,0,0,0,137.67,88h13a9.62,9.62,0,0,0,9.61-9.61V66.22A9.62,9.62,0,0,0,150.65,56.61Zm-14.6,21.78V66.22a1.61,1.61,0,0,1,1.61-1.61h5V80h-5A1.61,1.61,0,0,1,136.06,78.39Zm16.21,0A1.61,1.61,0,0,1,150.65,80h-5V64.61h5a1.61,1.61,0,0,1,1.61,1.61Z"/><path class="cls-1" d="M231.39,46.11,203.67,1.88a4,4,0,0,0-6.78,0L172.22,41.25,147.55,1.88a4,4,0,0,0-6.78,0L116,41.41,91.23,1.88a4,4,0,0,0-6.78,0L59.78,41.25,35.11,1.88a4,4,0,0,0-6.78,0L.61,46.11A4,4,0,0,0,0,48.24V139a4,4,0,0,0,4,4H59.44c.12,0,.23,0,.34,0s.22,0,.34,0h55.44a3.93,3.93,0,0,0,.44,0,3.93,3.93,0,0,0,.44,0h55.44c.12,0,.23,0,.34,0s.22,0,.34,0H228a4,4,0,0,0,4-4V48.24A4,4,0,0,0,231.39,46.11ZM200.28,11.53,219.37,42H181.19Zm-56.12,0L163.25,42H125.07Zm-56.32,0L106.93,42H68.75Zm-56.12,0L50.81,42H12.63ZM25.18,135V103.85a1.61,1.61,0,0,1,1.61-1.61h9.08a1.61,1.61,0,0,1,1.61,1.61V135Zm20.3,0V103.85a9.62,9.62,0,0,0-9.61-9.61H26.79a9.62,9.62,0,0,0-9.61,9.61V135H8V50H55.44v85Zm35.82,0V103.85a1.61,1.61,0,0,1,1.61-1.61H92a1.61,1.61,0,0,1,1.61,1.61V135Zm20.3,0V103.85A9.62,9.62,0,0,0,92,94.25H82.91a9.62,9.62,0,0,0-9.61,9.61V135H64.12V50h47.44v85Zm36,0V103.85a1.61,1.61,0,0,1,1.61-1.61h9.08a1.61,1.61,0,0,1,1.61,1.61V135Zm20.3,0V103.85a9.62,9.62,0,0,0-9.61-9.61h-9.08a9.62,9.62,0,0,0-9.61,9.61V135h-9.18V50h47.44v85Zm35.82,0V103.85a1.61,1.61,0,0,1,1.61-1.61h9.08a1.61,1.61,0,0,1,1.61,1.61V135Zm20.3,0V103.85a9.62,9.62,0,0,0-9.61-9.61h-9.08a9.62,9.62,0,0,0-9.61,9.61V135h-9.18V50H224v85Z"/><path class="cls-1" d="M206.78,56.61h-13a9.62,9.62,0,0,0-9.61,9.61V78.39A9.62,9.62,0,0,0,193.79,88h13a9.62,9.62,0,0,0,9.61-9.61V66.22A9.62,9.62,0,0,0,206.78,56.61Zm-14.6,21.78V66.22a1.61,1.61,0,0,1,1.61-1.61h5V80h-5A1.61,1.61,0,0,1,192.18,78.39Zm16.2,0A1.61,1.61,0,0,1,206.78,80h-5V64.61h5a1.61,1.61,0,0,1,1.61,1.61Z"/></g></g></svg>