<svg xmlns="http://www.w3.org/2000/svg" xmlns:xlink="http://www.w3.org/1999/xlink" viewBox="0 0 266.77 178.36"><defs><style>.cls-1{fill:none;}.cls-2{fill:#236bb4;}.cls-3{clip-path:url(#clip-path);}.cls-4{fill:#fff;}</style><clipPath id="clip-path"><rect class="cls-1" x="19.38" y="25.23" width="40.75" height="29.06"/></clipPath></defs><title>row-selected</title><g id="Layer_2" data-name="Layer 2"><g id="home1"><path class="cls-2" d="M73,92H60a9.62,9.62,0,0,0-9.61,9.61v12.17A9.62,9.62,0,0,0,60,123.36H73a9.62,9.62,0,0,0,9.61-9.61V101.58A9.62,9.62,0,0,0,73,92Zm-14.6,21.78V101.58A1.61,1.61,0,0,1,60,100h5v15.39H60A1.61,1.61,0,0,1,58.38,113.75Zm16.2,0A1.61,1.61,0,0,1,73,115.36H68V100h5a1.61,1.61,0,0,1,1.61,1.61Z"/><path class="cls-2" d="M129.1,92h-13a9.62,9.62,0,0,0-9.61,9.61v12.17a9.62,9.62,0,0,0,9.61,9.61h13a9.62,9.62,0,0,0,9.61-9.61V101.58A9.62,9.62,0,0,0,129.1,92Zm-14.6,21.78V101.58a1.61,1.61,0,0,1,1.61-1.61h5v15.39h-5A1.61,1.61,0,0,1,114.5,113.75Zm16.21,0a1.61,1.61,0,0,1-1.61,1.61h-5V100h5a1.61,1.61,0,0,1,1.61,1.61Z"/><path class="cls-2" d="M185.42,92h-13a9.62,9.62,0,0,0-9.61,9.61v12.17a9.62,9.62,0,0,0,9.61,9.61h13a9.62,9.62,0,0,0,9.61-9.61V101.58A9.62,9.62,0,0,0,185.42,92Zm-14.6,21.78V101.58a1.61,1.61,0,0,1,1.61-1.61h5v15.39h-5A1.61,1.61,0,0,1,170.82,113.75Zm16.21,0a1.61,1.61,0,0,1-1.61,1.61h-5V100h5a1.61,1.61,0,0,1,1.61,1.61Z"/><path class="cls-2" d="M266.16,81.48,238.44,37.24a4,4,0,0,0-6.78,0L207,76.61,182.32,37.24a4,4,0,0,0-6.78,0L150.77,76.77,126,37.24a4,4,0,0,0-6.78,0L94.54,76.61,69.87,37.24a4,4,0,0,0-6.78,0L35.38,81.48a4,4,0,0,0-.61,2.12v90.76a4,4,0,0,0,4,4H94.2c.12,0,.23,0,.34,0s.22,0,.34,0h55.44a2.22,2.22,0,0,1,.89,0h55.44c.12,0,.23,0,.34,0s.22,0,.34,0h55.44a4,4,0,0,0,4-4V83.6A4,4,0,0,0,266.16,81.48ZM235,46.9l19.09,30.47H216Zm-56.12,0L198,77.36H159.84Zm-56.32,0,19.09,30.47H103.51Zm-56.12,0L85.57,77.36H47.39ZM59.94,170.36V139.22a1.61,1.61,0,0,1,1.61-1.61h9.08a1.61,1.61,0,0,1,1.61,1.61v31.15Zm20.3,0V139.22a9.62,9.62,0,0,0-9.61-9.61H61.55a9.62,9.62,0,0,0-9.61,9.61v31.15H42.77v-85H90.2v85Zm35.82,0V139.22a1.61,1.61,0,0,1,1.61-1.61h9.08a1.61,1.61,0,0,1,1.61,1.61v31.15Zm20.3,0V139.22a9.62,9.62,0,0,0-9.61-9.61h-9.08a9.62,9.62,0,0,0-9.61,9.61v31.15H98.89v-85h47.44v85Zm36,0V139.22a1.61,1.61,0,0,1,1.61-1.61h9.08a1.61,1.61,0,0,1,1.61,1.61v31.15Zm20.3,0V139.22a9.62,9.62,0,0,0-9.61-9.61H174a9.62,9.62,0,0,0-9.61,9.61v31.15h-9.18v-85h47.44v85Zm35.82,0V139.22a1.61,1.61,0,0,1,1.61-1.61h9.08a1.61,1.61,0,0,1,1.61,1.61v31.15Zm20.3,0V139.22a9.62,9.62,0,0,0-9.61-9.61h-9.08a9.62,9.62,0,0,0-9.61,9.61v31.15h-9.18v-85h47.44v85Z"/><path class="cls-2" d="M241.54,92h-13a9.62,9.62,0,0,0-9.61,9.61v12.17a9.62,9.62,0,0,0,9.61,9.61h13a9.62,9.62,0,0,0,9.61-9.61V101.58A9.62,9.62,0,0,0,241.54,92Zm-14.6,21.78V101.58a1.61,1.61,0,0,1,1.61-1.61h5v15.39h-5A1.61,1.61,0,0,1,226.94,113.75Zm16.21,0a1.61,1.61,0,0,1-1.61,1.61h-5V100h5a1.61,1.61,0,0,1,1.61,1.61Z"/><circle class="cls-2" cx="39.76" cy="39.76" r="39.76"/><g id="completed-step-20"><g class="cls-3"><polygon class="cls-4" points="55.61 25.23 35.22 45.32 23.93 34.17 19.38 38.63 35.24 54.28 60.13 29.68 55.61 25.23"/></g></g></g></g></svg>