<svg xmlns="http://www.w3.org/2000/svg" viewBox="0 0 232 171"><defs><style>.cls-1{fill:#5b5c5c;}</style></defs><title>semidet-icn</title><g id="Layer_2" data-name="Layer 2"><g id="home1"><path class="cls-1" d="M76.63,103H92.75a9.62,9.62,0,0,0,9.61-9.61V73.61A9.62,9.62,0,0,0,92.75,64H76.63A9.62,9.62,0,0,0,67,73.61V93.39A9.62,9.62,0,0,0,76.63,103ZM94.36,73.61V93.39A1.61,1.61,0,0,1,92.75,95H86.19V72h6.56A1.61,1.61,0,0,1,94.36,73.61ZM75,73.61A1.61,1.61,0,0,1,76.63,72h6.56V95H76.63A1.61,1.61,0,0,1,75,93.39Z"/><path class="cls-1" d="M34.43,67H19.91a9.62,9.62,0,0,0-9.61,9.61V96.39A9.62,9.62,0,0,0,19.91,106H34.43A9.62,9.62,0,0,0,44,96.39V76.61A9.62,9.62,0,0,0,34.43,67ZM18.3,96.39V76.61A1.61,1.61,0,0,1,19.91,75h5.76V98H19.91A1.61,1.61,0,0,1,18.3,96.39Zm17.74,0A1.61,1.61,0,0,1,34.43,98H28.67V75h5.76A1.61,1.61,0,0,1,36,76.61Z"/><path class="cls-1" d="M34.43,115H19.91a9.62,9.62,0,0,0-9.61,9.61v19.78A9.62,9.62,0,0,0,19.91,154H34.43A9.62,9.62,0,0,0,44,144.39V124.61A9.62,9.62,0,0,0,34.43,115ZM18.3,144.39V124.61A1.61,1.61,0,0,1,19.91,123h5.76v23H19.91A1.61,1.61,0,0,1,18.3,144.39Zm17.74,0A1.61,1.61,0,0,1,34.43,146H28.67V123h5.76A1.61,1.61,0,0,1,36,124.61Z"/><path class="cls-1" d="M85,54.5A9.5,9.5,0,1,0,75.5,45,9.51,9.51,0,0,0,85,54.5Zm0-16A6.5,6.5,0,1,1,78.5,45,6.51,6.51,0,0,1,85,38.5Z"/><path class="cls-1" d="M228,27.63H165.79L150.76,2a4,4,0,0,0-6.9,0L116,49.5,88.14,2a4,4,0,0,0-6.9,0l-15,25.65H4a4,4,0,0,0-4,4V167a4,4,0,0,0,4,4H50.91a4,4,0,0,0,1.24-.22,4,4,0,0,0,1.24.22H178.61a4,4,0,0,0,1.24-.22,4,4,0,0,0,1.24.22H228a4,4,0,0,0,4-4V31.63A4,4,0,0,0,228,27.63Zm-4,8V52H181.09a4,4,0,0,0-.94.12l-9.67-16.5Zm-162.48,0-9.67,16.5a4,4,0,0,0-.94-.12H8V35.63ZM8,60H49.39V163H8Zm49.39-1.5L84.69,11.91,112,58.5V163H99.72V127.61A9.62,9.62,0,0,0,90.11,118H78.4a9.62,9.62,0,0,0-9.61,9.61V163H57.39ZM76.79,163V127.61A1.61,1.61,0,0,1,78.4,126H90.11a1.61,1.61,0,0,1,1.61,1.61V163Zm63.5,0V127.61a1.61,1.61,0,0,1,1.61-1.61H153.6a1.61,1.61,0,0,1,1.61,1.61V163Zm34.33,0h-11.4V127.61A9.62,9.62,0,0,0,153.6,118H141.89a9.62,9.62,0,0,0-9.61,9.61V163H120V58.5l27.31-46.59L174.61,58.5Zm8,0V60H224V163Z"/><path class="cls-1" d="M139.25,64a9.62,9.62,0,0,0-9.61,9.61V93.39a9.62,9.62,0,0,0,9.61,9.61h16.12A9.62,9.62,0,0,0,165,93.39V73.61A9.62,9.62,0,0,0,155.37,64Zm-1.61,29.39V73.61A1.61,1.61,0,0,1,139.25,72h6.56V95h-6.56A1.61,1.61,0,0,1,137.64,93.39ZM157,73.61V93.39A1.61,1.61,0,0,1,155.37,95h-6.56V72h6.56A1.61,1.61,0,0,1,157,73.61Z"/><path class="cls-1" d="M212.09,67H197.57A9.62,9.62,0,0,0,188,76.61V96.39a9.62,9.62,0,0,0,9.61,9.61h14.52a9.62,9.62,0,0,0,9.61-9.61V76.61A9.62,9.62,0,0,0,212.09,67ZM196,96.39V76.61A1.61,1.61,0,0,1,197.57,75h5.76V98h-5.76A1.61,1.61,0,0,1,196,96.39Zm17.74,0A1.61,1.61,0,0,1,212.09,98h-5.76V75h5.76a1.61,1.61,0,0,1,1.61,1.61Z"/><path class="cls-1" d="M212.09,115H197.57a9.62,9.62,0,0,0-9.61,9.61v19.78a9.62,9.62,0,0,0,9.61,9.61h14.52a9.62,9.62,0,0,0,9.61-9.61V124.61A9.62,9.62,0,0,0,212.09,115ZM196,144.39V124.61a1.61,1.61,0,0,1,1.61-1.61h5.76v23h-5.76A1.61,1.61,0,0,1,196,144.39Zm17.74,0a1.61,1.61,0,0,1-1.61,1.61h-5.76V123h5.76a1.61,1.61,0,0,1,1.61,1.61Z"/><path class="cls-1" d="M138.5,45a9.5,9.5,0,1,0,9.5-9.5A9.51,9.51,0,0,0,138.5,45Zm9.5-6.5a6.5,6.5,0,1,1-6.5,6.5A6.51,6.51,0,0,1,148,38.5Z"/></g></g></svg>