<svg xmlns="http://www.w3.org/2000/svg" xmlns:xlink="http://www.w3.org/1999/xlink" viewBox="0 0 267.14 179.3"><defs><style>.cls-1{fill:none;}.cls-2{fill:#236bb4;}.cls-3{clip-path:url(#clip-path);}.cls-4{fill:#fff;}</style><clipPath id="clip-path"><rect class="cls-1" x="19.38" y="25.23" width="40.75" height="29.06"/></clipPath></defs><title>Semidet-selected</title><g id="Layer_2" data-name="Layer 2"><g id="home1"><path class="cls-2" d="M111.78,111.3H127.9a9.62,9.62,0,0,0,9.61-9.61V81.91a9.62,9.62,0,0,0-9.61-9.61H111.78a9.62,9.62,0,0,0-9.61,9.61v19.78A9.62,9.62,0,0,0,111.78,111.3Zm17.73-29.39v19.78a1.61,1.61,0,0,1-1.61,1.61h-6.56v-23h6.56A1.61,1.61,0,0,1,129.51,81.91Zm-19.34,0a1.61,1.61,0,0,1,1.61-1.61h6.56v23h-6.56a1.61,1.61,0,0,1-1.61-1.61Z"/><path class="cls-2" d="M69.57,75.3H55a9.62,9.62,0,0,0-9.61,9.61v19.78A9.62,9.62,0,0,0,55,114.3H69.57a9.62,9.62,0,0,0,9.61-9.61V84.91A9.62,9.62,0,0,0,69.57,75.3ZM53.44,104.69V84.91A1.61,1.61,0,0,1,55,83.3h5.76v23H55A1.61,1.61,0,0,1,53.44,104.69Zm17.74,0a1.61,1.61,0,0,1-1.61,1.61H63.81v-23h5.76a1.61,1.61,0,0,1,1.61,1.61Z"/><path class="cls-2" d="M69.57,123.3H55a9.62,9.62,0,0,0-9.61,9.61v19.78A9.62,9.62,0,0,0,55,162.3H69.57a9.62,9.62,0,0,0,9.61-9.61V132.91A9.62,9.62,0,0,0,69.57,123.3ZM53.44,152.69V132.91A1.61,1.61,0,0,1,55,131.3h5.76v23H55A1.61,1.61,0,0,1,53.44,152.69Zm17.74,0a1.61,1.61,0,0,1-1.61,1.61H63.81v-23h5.76a1.61,1.61,0,0,1,1.61,1.61Z"/><path class="cls-2" d="M120.14,62.8a9.5,9.5,0,1,0-9.5-9.5A9.51,9.51,0,0,0,120.14,62.8Zm0-16a6.5,6.5,0,1,1-6.5,6.5A6.51,6.51,0,0,1,120.14,46.8Z"/><path class="cls-2" d="M263.14,35.92H200.94l-15-25.65a4,4,0,0,0-6.9,0L151.14,57.8,123.29,10.27a4,4,0,0,0-6.9,0l-15,25.65H39.14a4,4,0,0,0-4,4V175.3a4,4,0,0,0,4,4H86.05a4,4,0,0,0,1.24-.22,4,4,0,0,0,1.24.22H213.76a4,4,0,0,0,1.24-.22,4,4,0,0,0,1.24.22h46.91a4,4,0,0,0,4-4V39.92A4,4,0,0,0,263.14,35.92Zm-4,8V60.3H216.24a4,4,0,0,0-.94.12l-9.67-16.5Zm-162.48,0L87,60.42a4,4,0,0,0-.94-.12H43.14V43.92ZM43.14,68.3H84.53v103H43.14Zm49.39-1.5,27.31-46.59L147.14,66.8V171.3H134.86V135.91a9.62,9.62,0,0,0-9.61-9.61H113.54a9.62,9.62,0,0,0-9.61,9.61V171.3H92.53Zm19.4,104.5V135.91a1.61,1.61,0,0,1,1.61-1.61h11.71a1.61,1.61,0,0,1,1.61,1.61V171.3Zm63.5,0V135.91A1.61,1.61,0,0,1,177,134.3h11.71a1.61,1.61,0,0,1,1.61,1.61V171.3Zm34.33,0h-11.4V135.91a9.62,9.62,0,0,0-9.61-9.61H177a9.62,9.62,0,0,0-9.61,9.61V171.3H155.14V66.8l27.31-46.59L209.76,66.8Zm8,0V68.3h41.39v103Z"/><path class="cls-2" d="M174.39,72.3a9.62,9.62,0,0,0-9.61,9.61v19.78a9.62,9.62,0,0,0,9.61,9.61h16.12a9.62,9.62,0,0,0,9.61-9.61V81.91a9.62,9.62,0,0,0-9.61-9.61Zm-1.61,29.39V81.91a1.61,1.61,0,0,1,1.61-1.61H181v23h-6.56A1.61,1.61,0,0,1,172.78,101.69Zm19.34-19.78v19.78a1.61,1.61,0,0,1-1.61,1.61H184v-23h6.56A1.61,1.61,0,0,1,192.12,81.91Z"/><path class="cls-2" d="M247.24,75.3H232.71a9.62,9.62,0,0,0-9.61,9.61v19.78a9.62,9.62,0,0,0,9.61,9.61h14.52a9.62,9.62,0,0,0,9.61-9.61V84.91A9.62,9.62,0,0,0,247.24,75.3Zm-16.13,29.39V84.91a1.61,1.61,0,0,1,1.61-1.61h5.76v23h-5.76A1.61,1.61,0,0,1,231.11,104.69Zm17.74,0a1.61,1.61,0,0,1-1.61,1.61h-5.76v-23h5.76a1.61,1.61,0,0,1,1.61,1.61Z"/><path class="cls-2" d="M247.24,123.3H232.71a9.62,9.62,0,0,0-9.61,9.61v19.78a9.62,9.62,0,0,0,9.61,9.61h14.52a9.62,9.62,0,0,0,9.61-9.61V132.91A9.62,9.62,0,0,0,247.24,123.3Zm-16.13,29.39V132.91a1.61,1.61,0,0,1,1.61-1.61h5.76v23h-5.76A1.61,1.61,0,0,1,231.11,152.69Zm17.74,0a1.61,1.61,0,0,1-1.61,1.61h-5.76v-23h5.76a1.61,1.61,0,0,1,1.61,1.61Z"/><path class="cls-2" d="M173.64,53.3a9.5,9.5,0,1,0,9.5-9.5A9.51,9.51,0,0,0,173.64,53.3Zm9.5-6.5a6.5,6.5,0,1,1-6.5,6.5A6.51,6.51,0,0,1,183.14,46.8Z"/><circle class="cls-2" cx="39.76" cy="39.76" r="39.76"/><g id="completed-step-20"><g class="cls-3"><polygon class="cls-4" points="55.61 25.23 35.22 45.32 23.93 34.17 19.38 38.63 35.24 54.28 60.13 29.68 55.61 25.23"/></g></g></g></g></svg>